{
  "asset": {
    "version": "2.0",
    "generator": "Simple GLTF Creator"
  },
  "scenes": [
    {
      "name": "Scene",
      "nodes": [
        0
      ]
    }
  ],
  "nodes": [
    {
      "name": "VeyCharacter",
      "mesh": 0
    }
  ],
  "meshes": [
    {
      "name": "VeyMesh",
      "primitives": [
        {
          "attributes": {
            "POSITION": 0
          },
          "indices": 1,
          "material": 0
        }
      ]
    }
  ],
  "materials": [
    {
      "name": "CharacterMaterial",
      "pbrMetallicRoughness": {
        "baseColorFactor": [
          0.8,
          0.6,
          0.4,
          1.0
        ],
        "metallicFactor": 0.0,
        "roughnessFactor": 0.8
      }
    }
  ],
  "accessors": [
    {
      "bufferView": 0,
      "componentType": 5126,
      "count": 48,
      "type": "VEC3",
      "min": [
        -0.4,
        0.0,
        -0.15
      ],
      "max": [
        0.4,
        1.85,
        0.15
      ]
    },
    {
      "bufferView": 1,
      "componentType": 5123,
      "count": 216,
      "type": "SCALAR"
    }
  ],
  "bufferViews": [
    {
      "buffer": 0,
      "byteOffset": 0,
      "byteLength": 576,
      "target": 34962
    },
    {
      "buffer": 0,
      "byteOffset": 576,
      "byteLength": 432,
      "target": 34963
    }
  ],
  "buffers": [
    {
      "byteLength": 1008,
      "uri": "data:application/octet-stream;base64,"
    }
  ],
  "scene": 0
}